<?xml version="1.0" encoding="UTF-8" standalone="no"?>
<!DOCTYPE svg PUBLIC "-//W3C//DTD SVG 1.1//EN" "http://www.w3.org/Graphics/SVG/1.1/DTD/svg11.dtd">
<svg width="100%" height="100%" viewBox="0 0 203 187" version="1.1" xmlns="http://www.w3.org/2000/svg" xmlns:xlink="http://www.w3.org/1999/xlink" xml:space="preserve" xmlns:serif="http://www.serif.com/" style="fill-rule:evenodd;clip-rule:evenodd;stroke-linejoin:round;stroke-miterlimit:2;">
    <g transform="matrix(1.65899,0,0,1.65899,-51.5875,-35.0813)">
        <g>
            <g transform="matrix(1,0,0,1,-12.7193,-7.22288)">
                <path d="M99.895,28.369C68.922,28.369 43.815,53.477 43.815,84.448C43.815,115.425 68.922,140.536 99.895,140.536C130.871,140.536 155.979,115.425 155.979,84.448C155.979,53.478 130.87,28.369 99.895,28.369ZM130.141,60.829C127.544,60.919 125.751,59.367 125.67,57.011C125.641,56.147 125.864,55.391 126.456,54.507C127.035,53.373 127.159,53.243 127.144,52.75C127.091,51.265 124.849,51.209 124.235,51.238C115.816,51.516 113.597,62.878 111.798,72.116L110.917,76.988C115.765,77.697 119.206,76.823 121.126,75.581C123.829,73.826 120.37,72.023 120.806,70.028C121.248,67.994 123.098,67.012 124.569,66.971C126.627,66.92 128.095,69.055 128.048,71.222C127.975,74.804 123.223,79.725 113.719,79.524C112.561,79.497 111.494,79.416 110.502,79.296L108.709,89.193C107.104,96.689 104.969,106.929 97.338,115.865C90.783,123.657 84.129,124.869 81.15,124.969C75.576,125.157 71.88,122.186 71.75,118.219C71.621,114.379 75.018,112.283 77.246,112.208C80.221,112.109 82.279,114.264 82.357,116.748C82.433,118.852 81.336,119.508 80.609,119.904C80.125,120.294 79.394,120.691 79.421,121.556C79.439,121.928 79.837,122.78 81.075,122.742C83.43,122.659 84.995,121.494 86.089,120.716C91.519,116.191 93.609,108.307 96.345,93.955L96.919,90.474C97.853,85.807 98.888,80.602 100.466,75.415C96.638,72.533 94.345,68.961 89.195,67.564C85.668,66.606 83.515,67.419 82.004,69.332C80.213,71.598 80.807,74.546 82.537,76.274L85.396,79.437C88.902,83.487 90.818,86.639 90.097,90.878C88.952,97.646 80.89,102.839 71.355,99.904C63.218,97.397 61.699,91.636 62.675,88.463C63.536,85.67 65.755,85.142 67.927,85.808C70.251,86.527 71.161,89.352 70.497,91.521C70.423,91.753 70.304,92.14 70.059,92.661C69.789,93.258 69.289,93.783 69.075,94.482C68.552,96.185 70.887,97.396 72.514,97.895C76.155,99.013 79.705,97.111 80.606,94.164C81.444,91.458 79.731,89.569 79.022,88.845L75.575,85.154C73.999,83.398 70.528,78.501 72.221,73.003C72.873,70.882 74.248,68.633 76.241,67.144C80.452,64.007 85.028,63.492 89.387,64.745C95.028,66.367 97.737,70.097 101.25,72.978C103.217,67.209 105.941,61.563 110.041,56.798C113.744,52.458 118.717,49.314 124.414,49.118C130.106,48.93 134.409,51.511 134.551,55.595C134.61,57.333 133.613,60.713 130.141,60.829Z" style="fill:rgb(37,161,221);fill-rule:nonzero;"/>
            </g>
            <g transform="matrix(6.21124,0,0,6.21124,14.9188,-699.288)">
                <g transform="matrix(12,0,0,12,22.0734,133.912)">
                </g>
                <text x="12.452px" y="133.912px" style="font-family:'ScriptMTBold', 'Script MT Bold';font-weight:700;font-size:12px;fill:rgb(0,77,123);">R</text>
            </g>
        </g>
    </g>
</svg>
